<?xml version="1.0" standalone="no"?>
<!DOCTYPE svg PUBLIC "-//W3C//DTD SVG 20010904//EN"
 "http://www.w3.org/TR/2001/REC-SVG-20010904/DTD/svg10.dtd">
<svg version="1.0" xmlns="http://www.w3.org/2000/svg"
 width="100px" height="100px" viewBox="0 0 175.000000 129.000000"
 preserveAspectRatio="xMidYMid meet">

<g transform="translate(0.000000,129.000000) scale(0.100000,-0.100000)"
fill="#000000" stroke="none">
<path d="M310 669 l0 -411 213 4 c251 5 296 17 378 98 76 76 136 221 107 258
-22 30 -82 92 -89 92 -3 0 -9 -24 -13 -54 -15 -132 -60 -207 -151 -252 -49
-24 -70 -27 -190 -32 l-135 -5 0 303 0 303 113 -6 c129 -8 193 -24 242 -61 19
-15 158 -166 311 -336 216 -243 281 -310 300 -310 l24 0 0 410 0 410 -60 0
-60 0 -2 -281 -3 -280 -182 208 c-216 248 -243 274 -308 306 -72 36 -148 47
-332 47 l-163 0 0 -411z"/>
</g>
</svg>
